<svg width="86" height="40" viewBox="0 0 86 40" fill="none" xmlns="http://www.w3.org/2000/svg">
<g id="Group">
<path id="Vector" d="M9.54608 29.8212L18.1018 20.4127C17.7992 18.9546 16.5337 17.9092 13.8927 18.2669C11.7744 18.5695 10.0688 20.0825 10.0688 20.0825L10.5915 18.2944H3.90647L0 31.3343H6.68501L9.27098 22.6685C9.27098 22.6685 10.1513 22.0358 10.8116 22.2008C11.4443 22.3659 11.5268 23.1087 11.3893 23.7139L9.54608 29.8212Z" fill="white"/>
<path id="Vector_2" d="M28.3631 0L26.6025 5.83219L24.1816 0H18.9546L13.8927 16.8913H21.238L22.806 11.6369L23.8239 14.1128L35.2407 1.54058L35.7084 0H28.3631Z" fill="white"/>
<path id="Vector_3" d="M17.9367 22.4759C18.1018 21.9807 18.1568 21.4855 18.1568 21.0178L9.90373 30.1237L9.24348 30.839L9.10593 31.3342H15.2957L17.9367 22.4759Z" fill="white"/>
<path id="Vector_4" d="M45.0069 18.3219C42.8611 18.542 40.8528 20 40.8528 20L41.9257 16.3962C42.4209 16.1761 42.9161 15.901 43.4113 15.5984C44.4016 14.9931 45.2545 14.2504 45.9697 13.4801L44.9243 16.8638H51.8019L54.5254 8.00551C54.5254 8.00551 55.4058 7.37278 56.0935 7.53784C56.7538 7.7029 56.8363 8.44568 56.6712 9.05091L54.4429 16.2861C53.9202 16.7813 53.7276 17.4691 54.0027 17.9918C54.3604 18.707 55.3783 18.8996 56.2861 18.4319C56.9739 18.0743 57.3865 17.4691 57.3865 16.8638H60.6052L63.3562 7.86796C63.9065 5.96975 63.5488 3.35627 59.6974 3.54884C57.1664 3.65888 55.2957 5.41954 55.2957 5.41954L55.2682 5.44705L55.8184 3.65888H48.9408L48.088 6.43743C47.978 6.05228 47.8129 5.69465 47.5928 5.33701C45.7221 2.31088 40.7703 2.00827 36.5612 4.62175C35.2957 5.41954 34.2503 6.3549 33.4525 7.40029L34.9381 2.55847L24.1816 14.4154L24.044 14.5805L25.0069 16.8913H30.6465L31.7469 13.2325C31.8569 13.8102 32.077 14.3879 32.3796 14.8831C32.9849 15.8735 33.9202 16.5612 35.0756 16.9739L30.784 31.3343H37.469L40.0825 22.641H40.11C40.11 22.641 40.9904 22.0083 41.6506 22.1733C42.2833 22.3384 42.3659 23.0812 42.2283 23.6864L39.945 31.3343H46.1348L48.7208 22.641C49.4085 20.3852 48.4181 17.9918 45.0069 18.3219ZM38.3494 11.1692C37.9367 10.509 38.3494 9.51858 39.2572 8.96838C40.1651 8.39066 41.238 8.47319 41.6506 9.13344C42.0633 9.79369 41.6506 10.7841 40.7428 11.3343C39.8349 11.8845 38.762 11.8294 38.3494 11.1692Z" fill="white"/>
<path id="Vector_5" d="M30.9766 29.0784L34.1953 18.3219H27.5103H25.3095C24.5942 18.3219 20.0825 18.1018 18.3769 22.3934L17.9917 23.7139C17.0839 28.0605 21.0179 29.2159 24.7868 27.4553L24.6767 27.8129C23.8789 30.4264 18.8721 29.9587 16.9188 27.3452L15.1582 33.2049C16.0935 33.8102 18.0468 34.773 21.0454 34.9931C25.0894 35.2682 28.2256 34.0302 29.9587 31.3617C30.3989 30.674 30.729 29.9312 30.9766 29.0784ZM25.5571 24.9243C24.8693 25.1444 23.6314 25.337 23.4388 24.3466C23.2737 23.4388 23.934 21.9807 26.4099 21.9807H26.4374L25.5571 24.9243Z" fill="white"/>
<path id="Vector_6" d="M84.5392 19.3122C82.9986 17.8817 80.4127 17.9918 78.0468 19.3673L78.3769 18.3219H74.663C75.0482 17.9367 75.3783 17.5241 75.6809 17.0564C76.1211 16.3686 76.4787 15.5984 76.7538 14.7455L80.055 3.68639H73.1775H70.9216C70.1788 3.68639 65.5571 3.46631 63.7964 7.86796L63.3838 9.21596C62.4484 13.6726 66.4924 14.8831 70.3714 13.0674L70.2614 13.4526C69.4636 16.1211 64.2916 15.6534 62.2834 12.9574L60.4952 18.9546C58.1568 19.8625 56.4237 21.6231 55.5158 23.7689L57.0839 18.4869C55.4608 19.4773 52.7098 19.4498 50.7015 18.4594L50.4264 18.3219L46.52 31.3343H53.205L54.9656 25.4195C54.4429 28.2256 55.6534 30.4814 58.2669 31.2517C58.4869 30.9216 58.7896 30.6465 59.1747 30.4539C59.5048 30.2889 59.89 30.1788 60.2476 30.1788C60.9629 30.1788 61.5956 30.5365 61.8982 31.1142C61.9532 31.1967 61.9808 31.3067 62.0083 31.4168C64.2641 31.1142 66.575 30.1788 68.0055 28.5557L68.6383 26.5475C66.3549 28.0605 62.1733 28.6107 61.9532 25.6396H68.9134L69.1059 25.0344C69.271 24.5117 69.381 23.989 69.436 23.4388C69.5186 22.4759 69.4636 21.5406 69.1334 20.7153C69.7937 20.6327 70.3989 20.5227 71.0041 20.3576L66.4099 34.9656H73.0949L74.4704 30.5915C76.6162 32.2421 80.4127 31.2792 83.1637 28.3356C86.0248 25.337 86.63 21.2655 84.5392 19.3122ZM65.6121 23.3838H62.3384C62.8336 21.9532 63.7139 21.3205 64.5667 21.293C65.6671 21.2655 65.6946 22.1458 65.6946 22.3934C65.6946 22.586 65.6396 23.0812 65.6121 23.3838ZM65.5571 17.8267L64.9244 17.1114L63.8515 17.8267H62.3934L64.0715 16.1486H66.3274L67.0702 17.8267H65.5571ZM71.1417 10.4539C70.4264 10.674 69.1609 10.8941 68.9684 9.8487C68.8033 8.91335 69.4636 7.40028 72.022 7.40028H72.0495L71.1417 10.4539ZM78.4044 25.7222C77.8542 26.575 77.249 26.74 76.4512 26.6025C76.2311 26.5475 76.011 26.4649 75.846 26.3824L76.5612 24.099C77.1114 23.4938 77.9367 23.3288 78.4319 23.6589C79.0096 24.0165 78.9546 24.8693 78.4044 25.7222Z" fill="white"/>
<path id="Vector_7" d="M59.3673 30.8116C58.5144 31.2517 58.1018 32.1596 58.4594 32.8748C58.8171 33.5901 59.8074 33.8102 60.6602 33.37C61.5131 32.9299 61.9257 32.022 61.5681 31.3068C61.2105 30.5915 60.2201 30.3714 59.3673 30.8116Z" fill="white"/>
<path id="Vector_8" d="M43.0536 1.92571L43.7139 2.66849H45.1995L44.4567 0.990356H42.2283L40.5502 2.66849H42.0083L43.0536 1.92571Z" fill="white"/>
<path id="Vector_9" d="M37.8817 33.7001C38.0193 33.7001 38.1293 33.6451 38.2118 33.5626C38.2944 33.48 38.3494 33.3425 38.3494 33.2324C38.3494 33.0949 38.2944 32.9849 38.2118 32.9023C38.1293 32.8198 37.9917 32.7648 37.8817 32.7648C37.7442 32.7648 37.6341 32.8198 37.5516 32.9023C37.4691 32.9849 37.414 33.1224 37.414 33.2324C37.414 33.37 37.4691 33.48 37.5516 33.5626C37.6341 33.6726 37.7442 33.7001 37.8817 33.7001Z" fill="white"/>
<path id="Vector_10" d="M41.2105 32.7373L42.3384 33.7002H42.6685L41.4856 32.1321H40.9079L39.7249 33.7002H40.055L41.2105 32.7373Z" fill="white"/>
<path id="Vector_11" d="M37.0014 32.1321H35.0481V32.2971C35.2682 32.2971 35.4058 32.3247 35.5158 32.3522C35.6809 32.4072 35.7634 32.5447 35.7634 32.7373C35.7634 32.8198 35.7359 32.9024 35.7084 33.0124C35.6809 33.1225 35.6258 33.26 35.5708 33.4251L34.2228 37.0014L32.7373 33.7002C32.5997 33.37 32.4897 33.15 32.4347 32.9849C32.3796 32.8473 32.3521 32.7373 32.3521 32.6548C32.3521 32.4897 32.4347 32.4072 32.5722 32.3522C32.6547 32.3247 32.8198 32.2971 33.0674 32.2971V32.1321H30.5364V32.2971C30.7565 32.3247 30.9491 32.3797 31.0591 32.4897C31.1692 32.5998 31.3342 32.8749 31.5268 33.315L33.8652 38.5145H34.0027L36.0935 33.1775C36.2311 32.8198 36.3686 32.5722 36.5337 32.4622C36.6162 32.3797 36.7813 32.3247 36.9739 32.2971V32.1321H37.0014Z" fill="white"/>
<path id="Vector_12" d="M38.3494 37.5241V34.1953C38.3494 34.1678 38.3494 34.1403 38.3494 34.1128C38.3219 34.1128 38.2668 34.1403 38.1843 34.1678C37.9642 34.2503 37.6066 34.3879 37.0564 34.553L36.8638 34.608V34.7455C37.0289 34.6905 37.1114 34.6905 37.1389 34.663C37.1664 34.663 37.1939 34.663 37.249 34.663C37.3865 34.663 37.4966 34.718 37.5516 34.8556C37.5791 34.9381 37.6066 35.0757 37.6066 35.2682V37.4691C37.6066 37.8267 37.5516 38.0468 37.469 38.1293C37.3865 38.2118 37.1664 38.2668 36.8363 38.2944V38.4319H39.0922V38.2944C38.7895 38.2668 38.597 38.2118 38.5144 38.1293C38.4044 38.1018 38.3494 37.8817 38.3494 37.5241Z" fill="white"/>
<path id="Vector_13" d="M42.4209 37.6891C42.2008 37.8542 41.9257 37.9367 41.5956 37.9367C41.183 37.9367 40.8528 37.7716 40.5502 37.4415C40.2476 37.1114 40.0825 36.5887 40.055 35.8734H42.9986C42.9986 35.3232 42.8336 34.883 42.5035 34.5804C42.1733 34.2778 41.7882 34.1403 41.348 34.1403C40.7703 34.1403 40.2751 34.3603 39.9175 34.828C39.5599 35.2682 39.3673 35.8184 39.3673 36.4236C39.3673 37.0013 39.5323 37.4965 39.835 37.9367C40.1651 38.3768 40.6052 38.5969 41.183 38.5969C41.6781 38.5969 42.1183 38.4319 42.4484 38.1017C42.8061 37.7716 43.0261 37.414 43.1637 37.0013L42.9986 36.9463C42.8336 37.2764 42.641 37.524 42.4209 37.6891ZM40.3026 34.9656C40.4952 34.663 40.7428 34.4979 41.1004 34.4979C41.4581 34.4979 41.7057 34.6354 41.8707 34.9105C41.9532 35.0756 42.0083 35.2957 42.0358 35.5983H40.0825C40.1376 35.3232 40.1926 35.1306 40.3026 34.9656Z" fill="white"/>
<path id="Vector_14" d="M41.2105 39.0647C41.0729 39.0647 40.9629 39.1197 40.8803 39.2022C40.7978 39.2848 40.7428 39.3948 40.7428 39.5324C40.7428 39.6699 40.7978 39.78 40.8803 39.8625C40.9629 39.945 41.0729 40 41.2105 40C41.348 40 41.4581 39.945 41.5406 39.8625C41.6231 39.78 41.6781 39.6699 41.6781 39.5324C41.6781 39.3948 41.6231 39.2848 41.5406 39.2022C41.4306 39.1197 41.3205 39.0647 41.2105 39.0647Z" fill="white"/>
<path id="Vector_15" d="M45.6121 37.9917C45.5296 38.0467 45.4471 38.0742 45.3095 38.0742C45.0894 38.0742 44.9519 37.9642 44.8693 37.7441C44.8418 37.6341 44.8143 37.4415 44.8143 37.2214V34.5529H45.7497V34.2228H44.8418V33.0949C44.8418 33.0674 44.8418 33.0398 44.8418 33.0123C44.8418 33.0123 44.8143 33.0123 44.7593 33.0123C44.4017 33.48 44.1816 33.7826 44.099 33.8927C44.0165 34.0027 43.8515 34.1403 43.6314 34.3328C43.5488 34.3878 43.5213 34.4429 43.4938 34.4429C43.4663 34.4704 43.4663 34.4704 43.4663 34.5254C43.4663 34.5529 43.4663 34.5529 43.4663 34.5529L43.4938 34.5804H43.989V37.3865C43.989 37.6891 44.0165 37.9367 44.099 38.1292C44.2366 38.4594 44.4842 38.6244 44.8418 38.6244C45.0069 38.6244 45.1719 38.5694 45.3645 38.4869C45.5571 38.4043 45.7222 38.2393 45.8872 38.0192L45.9973 37.8817L45.8872 37.7716C45.7772 37.8541 45.6946 37.9367 45.6121 37.9917Z" fill="white"/>
<path id="Vector_16" d="M54.1953 32.2146H51.967V32.3797C52.3246 32.4072 52.5447 32.4897 52.6547 32.5722C52.8198 32.7373 52.8748 33.0674 52.8748 33.5901V36.7538L49.2159 32.2146H47.5928V32.3797C47.7854 32.3797 47.923 32.4072 48.033 32.4347C48.143 32.4622 48.2531 32.5722 48.3906 32.7373L48.5282 32.9024V37.0839C48.5282 37.5791 48.4732 37.9092 48.3631 38.0468C48.2531 38.1843 48.0055 38.2669 47.6203 38.3219V38.487H49.8487V38.3219C49.5186 38.2944 49.2985 38.2119 49.1884 38.1018C49.0509 37.9367 48.9684 37.6066 48.9684 37.0839V33.3975L53.1499 38.597H53.315V33.6176C53.315 33.1224 53.37 32.7923 53.5076 32.6548C53.6176 32.5172 53.8652 32.4347 54.2228 32.3797V32.2146H54.1953Z" fill="white"/>
<path id="Vector_17" d="M57.6066 38.0193C57.4691 38.0193 57.3865 37.9642 57.359 37.8267C57.3315 37.7717 57.3315 37.6341 57.3315 37.4691V35.6259C57.3315 35.2132 57.2765 34.9106 57.1664 34.6905C56.9464 34.3054 56.5337 34.1128 55.956 34.1128C55.4333 34.1128 55.0481 34.2228 54.773 34.4704C54.4979 34.718 54.3604 34.9381 54.3604 35.1582C54.3604 35.2682 54.3879 35.3783 54.4704 35.4608C54.553 35.5433 54.663 35.5983 54.8006 35.5983C54.8831 35.5983 54.9656 35.5708 55.0206 35.5433C55.1307 35.4883 55.1857 35.3508 55.1857 35.1857C55.1857 35.1582 55.1857 35.1032 55.1582 35.0206C55.1307 34.9381 55.1307 34.8831 55.1307 34.8281C55.1307 34.6905 55.2132 34.5805 55.3508 34.4979C55.4883 34.4154 55.6534 34.3879 55.7909 34.3879C56.1211 34.3879 56.3411 34.4979 56.4512 34.6905C56.5062 34.8006 56.5337 35.0206 56.5337 35.3508V35.7359C55.6809 36.066 55.1307 36.3136 54.8281 36.4787C54.3879 36.7813 54.1678 37.1389 54.1678 37.6066C54.1678 37.8817 54.2779 38.1293 54.4704 38.3219C54.663 38.5144 54.8831 38.597 55.1582 38.597C55.4058 38.597 55.6809 38.5144 55.956 38.3494C56.121 38.2393 56.3136 38.1018 56.5612 37.9092C56.5612 38.1018 56.6162 38.2669 56.7263 38.4044C56.8088 38.542 56.9739 38.597 57.194 38.597C57.3865 38.597 57.5516 38.542 57.7166 38.4319C57.8267 38.3494 57.9367 38.2669 58.0468 38.1293V37.8817C57.9367 37.9642 57.8542 38.0193 57.7992 38.0468C57.7442 38.0193 57.6891 38.0193 57.6066 38.0193ZM56.5612 37.3865C56.5612 37.5516 56.4787 37.7166 56.2861 37.8267C56.0935 37.9367 55.901 37.9918 55.7084 37.9918C55.5708 37.9918 55.4333 37.9367 55.2957 37.8542C55.1032 37.7166 55.0206 37.5241 55.0206 37.2215C55.0206 36.8638 55.2407 36.5612 55.6809 36.2861C55.901 36.1486 56.2036 36.011 56.5612 35.901V37.3865Z" fill="white"/>
<path id="Vector_18" d="M64.8143 38.2119C64.7043 38.1293 64.6768 37.9918 64.6768 37.7717V35.846C64.6768 35.3508 64.6217 34.9932 64.5392 34.7731C64.3741 34.3604 64.044 34.1678 63.5488 34.1678C63.2462 34.1678 62.9436 34.2504 62.641 34.443C62.4759 34.553 62.2834 34.7181 62.0358 34.9656C61.9807 34.7731 61.8982 34.608 61.7882 34.498C61.5956 34.2779 61.348 34.1678 61.0179 34.1678C60.7703 34.1678 60.5502 34.2229 60.3301 34.3329C60.11 34.443 59.8349 34.6355 59.5323 34.9106V34.2779C59.5323 34.2229 59.5323 34.1954 59.5323 34.1954C59.5323 34.1678 59.5323 34.1678 59.5048 34.1678C59.4773 34.1678 59.3398 34.2229 59.0646 34.3329C58.7895 34.443 58.597 34.498 58.4594 34.553L58.1293 34.663V34.8281C58.1843 34.8006 58.2118 34.8006 58.2393 34.8006C58.2668 34.8006 58.3219 34.8006 58.3769 34.8006C58.5144 34.8006 58.6245 34.8281 58.6795 34.9106C58.7345 34.9932 58.762 35.1307 58.762 35.3508V37.7442C58.762 38.0193 58.707 38.1844 58.5695 38.2944C58.4869 38.3494 58.3219 38.4044 58.0743 38.4044V38.5145H60.1926V38.4044C59.9175 38.4044 59.7524 38.3494 59.6699 38.2669C59.5873 38.1844 59.5598 38.0193 59.5598 37.7717V35.2132C59.6974 35.0482 59.8624 34.9106 60.055 34.8006C60.2476 34.6905 60.4127 34.6355 60.6052 34.6355C60.9354 34.6355 61.1554 34.7731 61.2655 35.0757C61.3205 35.2408 61.348 35.5709 61.348 36.0661V37.359C61.348 37.7717 61.3205 38.0193 61.238 38.1293C61.1554 38.2394 60.9629 38.2944 60.6878 38.3494V38.4595H62.8061V38.3494C62.531 38.3494 62.3384 38.2669 62.2558 38.1293C62.1733 37.9918 62.1183 37.7992 62.1183 37.5516V35.2132C62.2834 35.0482 62.4209 34.9106 62.531 34.8556C62.7235 34.7181 62.9161 34.663 63.1362 34.663C63.4663 34.663 63.6864 34.8006 63.7964 35.0482C63.8514 35.1857 63.9065 35.4058 63.9065 35.7084V37.7167C63.9065 37.9643 63.8514 38.1293 63.7689 38.2394C63.6864 38.3219 63.4938 38.3769 63.2462 38.4044V38.542H65.337V38.4319C65.0894 38.3494 64.9243 38.2944 64.8143 38.2119Z" fill="white"/>
</g>
</svg>
