<svg width="127" height="30" viewBox="0 0 127 30" fill="none" xmlns="http://www.w3.org/2000/svg">
<path d="M121.405 21.9947C121.273 21.947 121.202 21.8006 121.249 21.6644L125.648 9.28353C126.36 7.27794 126.059 5.03739 124.834 3.2974C123.549 1.46546 121.409 0.41329 119.174 0.522253L95.3279 1.68679C95.1855 1.6936 95.0668 1.58464 95.06 1.44163C95.0532 1.29861 95.1617 1.17943 95.3042 1.17262L119.15 0.00808524C121.561 -0.107688 123.871 1.0262 125.258 3.00115C126.578 4.88076 126.903 7.29156 126.137 9.45719L121.738 21.8381C121.687 21.9743 121.538 22.0424 121.405 21.9947Z" fill="#FF0000"/>
<path d="M118.342 3.89401L68.9444 6.30481C68.2186 6.33886 67.547 6.55678 66.9739 6.9041C71.2913 8.1776 74.4454 12.1888 74.4454 16.9355C74.4454 20.9058 72.2409 24.3586 68.9952 26.1292C69.6939 26.8034 70.6198 27.2324 71.6372 27.3005L112.003 29.9906C113.889 30.1166 115.625 28.969 116.26 27.1848L122.524 9.55666C123.535 6.71001 121.344 3.74759 118.342 3.89401Z" fill="#FF0000"/>
<path d="M81.2329 21.9286V12.0985H84.5614V19.417H88.2409V21.9286H81.2329Z" fill="white"/>
<path d="M89.3006 21.9286V12.0985H92.6628V21.9286H89.3006Z" fill="white"/>
<path d="M93.2971 12.0985H96.8146L98.5632 17.3849C98.5902 17.4704 98.6105 17.5536 98.624 17.6347C98.6375 17.7157 98.6555 17.8169 98.678 17.9385H98.7185C98.741 17.8169 98.7613 17.7157 98.7793 17.6347C98.8018 17.5491 98.822 17.4659 98.84 17.3849L100.616 12.0985H103.782L100.406 21.9488H96.6863L93.2971 12.0985Z" fill="white"/>
<path d="M104.464 21.9286V12.0985H111.802V14.61H107.691V15.7983H111.222V18.0938H107.691V19.4845H111.897V21.9286H104.464Z" fill="white"/>
<g clip-path="url(#clip0_101_4803)">
<path d="M12.421 25.4933C12.2075 25.4933 11.897 25.4352 11.4894 25.319C11.077 25.2028 10.7034 24.8541 10.3589 24.2779L7.13236 18.53H4.01256C4.01256 17.8811 4.24546 17.329 4.70639 16.869C5.16733 16.409 5.7253 16.1766 6.38516 16.1766H8.63647C9.34971 16.1766 9.9562 15.9248 10.4608 15.4211C10.9654 14.9175 11.2177 14.3074 11.2177 13.5907C11.2177 12.8789 10.9654 12.2736 10.4608 11.77C9.9562 11.2664 9.34971 11.0146 8.63647 11.0146H2.36775V23.1302C2.36775 23.7791 2.13486 24.3311 1.66907 24.7912C1.20814 25.2512 0.650161 25.4836 0 25.4836V8.65149H8.63162C9.99016 8.65149 11.1546 9.13573 12.125 10.1042C13.0954 11.0727 13.5806 12.2349 13.5806 13.5907C13.5806 14.9563 13.0954 16.1233 12.125 17.0918C11.47 17.7406 10.6791 18.1765 9.75727 18.4041L13.5806 25.1931C13.1973 25.3916 12.8091 25.4933 12.421 25.4933Z" fill="white"/>
<path d="M31.4504 25.4933H30.7468C29.7473 25.4933 28.9953 24.98 28.4955 23.9583L27.3699 21.0577H20.286C20.286 20.404 20.5189 19.8422 20.9799 19.3822C21.4408 18.9222 21.9939 18.6898 22.6441 18.6898H26.4431L23.3961 10.8306L18.2919 23.9631C17.7921 24.9849 17.0449 25.4981 16.0503 25.4981H15.337L21.271 10.2107C21.5427 9.55701 21.9939 9.09699 22.6198 8.84034L23.2651 8.66602L23.3961 8.6757L23.5271 8.66602L24.1724 8.84034C24.808 9.09699 25.2544 9.55217 25.5213 10.2107L31.4504 25.4933Z" fill="white"/>
<path d="M36.1664 25.4836C36.1664 24.8347 36.3993 24.2779 36.8602 23.8178C37.3211 23.353 37.8791 23.1205 38.539 23.1205H39.7714C41.4453 23.1205 42.8718 22.5298 44.0557 21.3482C45.2395 20.1667 45.8315 18.7382 45.8315 17.0724C45.8315 15.4018 45.2395 13.9781 44.0557 12.7966C42.8718 11.615 41.4405 11.0243 39.7714 11.0243H35.5842V23.1205C35.5842 23.7743 35.3513 24.336 34.8903 24.796C34.4294 25.256 33.8714 25.4885 33.2115 25.4885V8.65149H39.7665C42.0421 8.65149 43.978 9.42143 45.5792 10.9613C47.1755 12.5012 48.0488 14.4236 48.1895 16.7237L48.1992 17.0627L48.1895 17.392C48.0585 19.6389 47.2337 21.5129 45.7247 23.0092C44.0848 24.6556 42.0955 25.4788 39.7665 25.4788H36.1664V25.4836Z" fill="white"/>
<path d="M49.9557 11.0194C49.9557 10.3657 50.1886 9.80398 50.6495 9.34395C51.1105 8.88392 51.6684 8.65149 52.3283 8.65149V23.1302C52.3283 23.7791 52.0954 24.3311 51.6296 24.7912C51.1638 25.2512 50.6058 25.4836 49.9605 25.4836V11.0194H49.9557Z" fill="white"/>
<path d="M62.4786 25.4837C60.1545 25.4837 58.1749 24.6653 56.5398 23.0334C54.8998 21.3967 54.0847 19.421 54.0847 17.1063C54.0847 14.7336 54.9047 12.7288 56.5398 11.0969C58.1798 9.46021 60.1594 8.64185 62.4786 8.64185C64.793 8.64185 66.7677 9.46021 68.4077 11.0921C70.0476 12.7288 70.8628 14.7045 70.8628 17.0192C70.8628 19.3919 70.0428 21.3967 68.4077 23.0286C66.7726 24.6653 64.793 25.4837 62.4786 25.4837ZM62.5514 22.8736C64.1768 22.8736 65.5693 22.2974 66.724 21.1497C67.8788 19.9972 68.461 18.6123 68.461 16.9901C68.461 15.3582 67.8837 13.9685 66.724 12.816C65.5693 11.6635 64.1768 11.0921 62.5514 11.0921C60.9163 11.0921 59.5238 11.6683 58.369 12.816C57.2142 13.9685 56.6368 15.3582 56.6368 16.9901C56.6368 18.6123 57.2142 20.0021 58.369 21.1497C59.5238 22.2974 60.9163 22.8736 62.5514 22.8736Z" fill="white"/>
</g>
<defs>
<clipPath id="clip0_101_4803">
<rect width="70.8627" height="16.8515" fill="white" transform="translate(0 8.64185)"/>
</clipPath>
</defs>
</svg>
