<svg width="27" height="26" viewBox="0 0 27 26" fill="none" xmlns="http://www.w3.org/2000/svg">
<g clip-path="url(#clip0)">
<path d="M26.5619 9.40397L26.564 0.758983L23.091 4.1927L22.702 3.80812C20.2187 1.35235 16.9168 0 13.4043 0C6.15412 0 0.255859 5.83157 0.255859 12.9997C0.255859 20.1679 6.15412 25.9995 13.4043 25.9995C20.6544 25.9995 26.5527 20.1679 26.5527 12.9997H24.0077C24.0077 18.7805 19.2506 23.4838 13.4038 23.4838C7.55687 23.4838 2.80086 18.7805 2.80086 12.9997C2.80086 7.21898 7.55739 2.51623 13.4043 2.51623C16.2365 2.51623 18.8997 3.60695 20.9021 5.58721L21.291 5.97179L17.8186 9.40499L26.5619 9.40397Z" fill="#BDBDBD"/>
<path d="M9.1687 18H10.1882V9.54492H9.15698L6.90698 11.1621V12.2754L9.14526 10.6641H9.1687V18ZM15.2917 18.1406C17.2605 18.1406 18.3972 16.4355 18.3972 13.7637C18.3972 11.1094 17.2546 9.4043 15.2917 9.4043C13.3289 9.4043 12.1746 11.1211 12.1746 13.7695C12.1746 16.4414 13.3171 18.1406 15.2917 18.1406ZM15.2917 17.2207C13.9675 17.2207 13.2351 15.873 13.2351 13.7637C13.2351 11.7012 13.9851 10.3301 15.2917 10.3301C16.5984 10.3301 17.3367 11.6895 17.3367 13.7695C17.3367 15.8789 16.6101 17.2207 15.2917 17.2207Z" fill="white"/>
</g>
<defs>
<clipPath id="clip0">
<rect width="26.3081" height="26" fill="white" transform="translate(0.255859)"/>
</clipPath>
</defs>
</svg>
