<svg width="27" height="26" viewBox="0 0 27 26" fill="none" xmlns="http://www.w3.org/2000/svg">
<g clip-path="url(#clip0)">
<path d="M0.00204813 9.40397L-7.62939e-06 0.758983L3.47297 4.1927L3.86194 3.80812C6.34528 1.35235 9.64716 0 13.1597 0C20.4098 0 26.3081 5.83157 26.3081 12.9997C26.3081 20.1679 20.4098 25.9995 13.1597 25.9995C5.90955 25.9995 0.0112967 20.1679 0.0112967 12.9997H2.5563C2.5563 18.7805 7.31334 23.4838 13.1602 23.4838C19.0071 23.4838 23.7631 18.7805 23.7631 12.9997C23.7631 7.21898 19.0066 2.51623 13.1597 2.51623C10.3275 2.51623 7.66429 3.60695 5.66189 5.58721L5.27292 5.97179L8.74539 9.40499L0.00204813 9.40397Z" fill="#BDBDBD"/>
<path d="M8.91284 18H9.93237V9.54492H8.90112L6.65112 11.1621V12.2754L8.8894 10.6641H8.91284V18ZM15.0359 18.1406C17.0046 18.1406 18.1414 16.4355 18.1414 13.7637C18.1414 11.1094 16.9988 9.4043 15.0359 9.4043C13.073 9.4043 11.9187 11.1211 11.9187 13.7695C11.9187 16.4414 13.0613 18.1406 15.0359 18.1406ZM15.0359 17.2207C13.7117 17.2207 12.9792 15.873 12.9792 13.7637C12.9792 11.7012 13.7292 10.3301 15.0359 10.3301C16.3425 10.3301 17.0808 11.6895 17.0808 13.7695C17.0808 15.8789 16.3542 17.2207 15.0359 17.2207Z" fill="white"/>
</g>
<defs>
<clipPath id="clip0">
<rect width="26.3081" height="26" fill="white"/>
</clipPath>
</defs>
</svg>
