<svg width="18" height="21" viewBox="0 0 18 21" fill="none" xmlns="http://www.w3.org/2000/svg">
<g clip-path="url(#clip0)">
<path d="M16.1589 0H1.84113C0.822633 0 0 0.822633 0 1.84113V16.1589C0 17.1774 0.822633 18 1.84113 18H4.71382V20.5005L8.20022 18H16.1589C17.1774 18 18 17.1774 18 16.1589V1.84113C18 0.822633 17.1708 0 16.1589 0Z" fill="#41A0D7"/>
<path d="M18.0001 15.7932V12.9075C17.6279 12.5223 17.1056 12.2872 16.5246 12.2872H12.3331L17.9936 4.57013V2.10223C17.6998 1.84108 17.3211 1.69092 16.9163 1.69092H8.357C7.22098 1.69092 6.29389 2.61148 6.29389 3.75403C6.29389 4.89658 7.21445 5.81714 8.357 5.81714H11.9609L6.13067 13.8476C5.77158 14.3373 5.71935 14.9902 6.00009 15.532C6.2743 16.0739 6.83578 16.4134 7.44296 16.4134H16.5311C17.1056 16.4134 17.6214 16.1784 18.0001 15.7932Z" fill="white"/>
</g>
<defs>
<clipPath id="clip0">
<rect width="18" height="20.5005" fill="white"/>
</clipPath>
</defs>
</svg>
